<?xml version="1.0" encoding="UTF-8" standalone="no"?><!DOCTYPE svg PUBLIC "-//W3C//DTD SVG 1.1//EN" "http://www.w3.org/Graphics/SVG/1.1/DTD/svg11.dtd"><svg width="100%" height="100%" viewBox="0 0 718 343" version="1.1" xmlns="http://www.w3.org/2000/svg" xmlns:xlink="http://www.w3.org/1999/xlink" xml:space="preserve" xmlns:serif="http://www.serif.com/" style="fill-rule:evenodd;clip-rule:evenodd;stroke-linecap:round;stroke-linejoin:round;stroke-miterlimit:1.5;"><g><path d="M445.606,73.821l-327.236,0c-7.333,0 -13.287,6.57 -13.287,14.663c-0,8.092 5.954,14.662 13.287,14.662l244.577,0c7.408,0 13.414,4.879 13.414,10.896c0,0.001 0,0.001 0,0.002c0,6.018 -6.006,10.896 -13.414,10.896c-45.542,-0 -191.427,-0 -191.427,-0c-7.333,-0 -13.287,6.57 -13.287,14.663c-0,8.092 5.954,14.662 13.287,14.662l151.722,0c7.474,0 13.533,4.922 13.533,10.993l0,0c0,6.071 -6.059,10.993 -13.533,10.993c-54.071,0 -251.695,0 -251.695,0c-7.333,0 -13.287,6.57 -13.287,14.663c-0,8.092 5.954,14.662 13.287,14.662c0,0 215.922,0 272.68,0c3.589,0 7.031,1.159 9.569,3.22c2.538,2.062 3.964,4.858 3.964,7.773l0,0.001c0,6.071 -6.059,10.992 -13.533,10.992c-51.988,0 -235.981,0 -235.981,0c-7.333,0 -13.287,6.57 -13.287,14.663c-0,8.093 5.954,14.663 13.287,14.663l337.36,-0l0,-183.067Z"/><path d="M79.465,88.436c-0,-8.066 -6.549,-14.615 -14.616,-14.615l-10.58,0c-8.067,0 -14.615,6.549 -14.615,14.615c-0,8.066 6.548,14.615 14.615,14.615l10.58,0c8.067,0 14.616,-6.549 14.616,-14.615Z"/><path d="M68.811,242.273c0,-8.067 -6.549,-14.616 -14.615,-14.616l-10.581,0c-8.066,0 -14.615,6.549 -14.615,14.616c-0,8.066 6.549,14.615 14.615,14.615l10.581,-0c8.066,-0 14.615,-6.549 14.615,-14.615Z"/><path d="M131.748,139.519c0,-8.067 -6.549,-14.615 -14.615,-14.615l-38.581,-0c-8.066,-0 -14.615,6.548 -14.615,14.615c-0,8.066 6.549,14.615 14.615,14.615l38.581,-0c8.066,-0 14.615,-6.549 14.615,-14.615Z"/><path d="M31.811,190.426c0,-8.066 -6.549,-14.615 -14.615,-14.615l-2.581,0c-8.066,0 -14.615,6.549 -14.615,14.615c0,8.066 6.549,14.615 14.615,14.615l2.581,0c8.066,0 14.615,-6.549 14.615,-14.615Z"/></g><g><ellipse cx="546" cy="171.039" rx="161.366" ry="158" style="fill:#f9d907;"/><path d="M546,0c94.521,0 171.26,76.739 171.26,171.26c-0,94.521 -76.739,171.26 -171.26,171.26c-94.521,-0 -171.26,-76.739 -171.26,-171.26c0,-94.521 76.739,-171.26 171.26,-171.26Zm-0,26.22c80.05,0 145.04,64.99 145.04,145.04c-0,80.049 -64.99,145.039 -145.04,145.039c-80.05,0 -145.04,-64.99 -145.04,-145.039c0,-80.05 64.99,-145.04 145.04,-145.04Z"/><g><g><path d="M495.171,141.185l50.812,30.054l-0.623,59.072l-50.811,-30.054l0.622,-59.072Z" style="fill:#dae2e5;stroke:#000;stroke-width:0.16px;"/><path d="M546.64,112.188l50.811,30.055l-51.468,28.996l-50.812,-30.054l51.469,-28.997Z" style="fill:#13292f;stroke:#000;stroke-width:0.16px;"/><path d="M545.982,171.26l51.434,-28.977l-0.623,59.072l-51.433,28.976l0.622,-59.071Z" style="fill:#dae2e5;stroke:#000;stroke-width:0.16px;"/></g><path d="M546,112.188l96.228,28.067l-96.228,28.066l-96.228,-28.066l96.228,-28.067Z" style="fill:#14282e;stroke:#14282e;stroke-width:7.07px;stroke-linecap:butt;"/></g></g><g><path d="M445.606,73.821l-327.236,0c-7.333,0 -13.287,6.57 -13.287,14.663c-0,8.092 5.954,14.662 13.287,14.662l244.577,0c7.408,0 13.414,4.879 13.414,10.896c0,0.001 0,0.001 0,0.002c0,6.018 -6.006,10.896 -13.414,10.896c-45.542,-0 -191.427,-0 -191.427,-0c-7.333,-0 -13.287,6.57 -13.287,14.663c-0,8.092 5.954,14.662 13.287,14.662l151.722,0c7.474,0 13.533,4.922 13.533,10.993l0,0c0,6.071 -6.059,10.993 -13.533,10.993c-54.071,0 -251.695,0 -251.695,0c-7.333,0 -13.287,6.57 -13.287,14.663c-0,8.092 5.954,14.662 13.287,14.662c0,0 215.922,0 272.68,0c3.589,0 7.031,1.159 9.569,3.22c2.538,2.062 3.964,4.858 3.964,7.773l0,0.001c0,6.071 -6.059,10.992 -13.533,10.992c-51.988,0 -235.981,0 -235.981,0c-7.333,0 -13.287,6.57 -13.287,14.663c-0,8.093 5.954,14.663 13.287,14.663l337.36,-0l0,-183.067Z"/><path d="M79.465,88.436c-0,-8.066 -6.549,-14.615 -14.616,-14.615l-10.58,0c-8.067,0 -14.615,6.549 -14.615,14.615c-0,8.066 6.548,14.615 14.615,14.615l10.58,0c8.067,0 14.616,-6.549 14.616,-14.615Z"/><path d="M68.811,242.273c0,-8.067 -6.549,-14.616 -14.615,-14.616l-10.581,0c-8.066,0 -14.615,6.549 -14.615,14.616c-0,8.066 6.549,14.615 14.615,14.615l10.581,-0c8.066,-0 14.615,-6.549 14.615,-14.615Z"/><path d="M131.748,139.519c0,-8.067 -6.549,-14.615 -14.615,-14.615l-38.581,-0c-8.066,-0 -14.615,6.548 -14.615,14.615c-0,8.066 6.549,14.615 14.615,14.615l38.581,-0c8.066,-0 14.615,-6.549 14.615,-14.615Z"/><path d="M31.811,190.426c0,-8.066 -6.549,-14.615 -14.615,-14.615l-2.581,0c-8.066,0 -14.615,6.549 -14.615,14.615c0,8.066 6.549,14.615 14.615,14.615l2.581,0c8.066,0 14.615,-6.549 14.615,-14.615Z"/></g><g><ellipse cx="546" cy="171.039" rx="161.366" ry="158" style="fill:#f9d907;"/><path d="M546,0c94.521,0 171.26,76.739 171.26,171.26c-0,94.521 -76.739,171.26 -171.26,171.26c-94.521,-0 -171.26,-76.739 -171.26,-171.26c0,-94.521 76.739,-171.26 171.26,-171.26Zm-0,26.22c80.05,0 145.04,64.99 145.04,145.04c-0,80.049 -64.99,145.039 -145.04,145.039c-80.05,0 -145.04,-64.99 -145.04,-145.039c0,-80.05 64.99,-145.04 145.04,-145.04Z"/><g><g><path d="M495.171,141.185l50.812,30.054l-0.623,59.072l-50.811,-30.054l0.622,-59.072Z" style="fill:#999;stroke:#000;stroke-width:0.16px;"/><path d="M546.64,112.188l50.811,30.055l-51.468,28.996l-50.812,-30.054l51.469,-28.997Z" style="fill:#999;stroke:#000;stroke-width:0.16px;"/><path d="M545.982,171.26l51.434,-28.977l-0.623,59.072l-51.433,28.976l0.622,-59.071Z" style="fill:#999;stroke:#000;stroke-width:0.16px;"/></g><path d="M546,112.188l96.228,28.067l-96.228,28.066l-96.228,-28.066l96.228,-28.067Z" style="fill:#14282e;stroke:#14282e;stroke-width:7.07px;stroke-linecap:butt;"/></g></g></svg>